<svg xmlns="http://www.w3.org/2000/svg" width="343.861" height="346.135" viewBox="0 0 90.98 91.581"><path d="M2547.77 185.43c0-85.051-69.6-154.63-154.62-154.63H188.418c-85.051 0-154.625 69.579-154.625 154.63v2222.65c0 85.05 69.574 154.62 154.625 154.62H2393.15c85.02 0 154.62-69.57 154.62-154.62zm-150.72 2410.58H181.91C81.86 2596.01 0 2514.16 0 2414.1V181.93C0 81.871 81.86 0 181.91 0h2215.14c100.06 0 181.91 81.871 181.91 181.93V2414.1c0 100.06-81.85 181.91-181.91 181.91" style="fill:#002d72;fill-opacity:1;fill-rule:nonzero;stroke:none" transform="matrix(.03528 0 0 -.03528 0 91.581)"/><path d="M309.164 1420.6h-47.91v527.66h47.91V1420.6M406.426 1551.96h-47.91v571.78h47.91v-571.78M493.66 1712.93h-47.906v497.04h47.906v-497.04M585.914 1495.95h-47.922v481.39h47.922v-481.39M678.152 1683.84H630.25v469.98h47.902v-469.98M769.402 1874.36h-47.91v450.92h47.91v-450.92M862.66 1490.25h-47.918v645.52h47.918v-645.52M953.902 1419.82h-47.906v658.79h47.906v-658.79M1043.14 1860.33h-47.91v294.49h47.91v-294.49M1044.15 1075.21h-47.92v373.71h47.92v-373.71M1138.4 1155.42h-47.91v877.93h47.91v-877.93M1229.79 1362.31h-47.91v1039.53h47.91V1362.31M1320.49 1493.72h-47.92v949.69h47.92v-949.69M1414.64 1316.57h-47.9v879.06h47.9v-879.06M1504.51 1274.72h-47.92v611.92h47.92v-611.92M1598.51 1361.77h-47.89v394.62h47.89v-394.62M1687.55 1274.87h-47.93v804.02h47.93v-804.02M1778.93 1348.91h-47.88v1037.38h47.88V1348.91M1872.89 1566.6h-47.88v918.63h47.88V1566.6M1964.43 1931.03h-47.89V2430h47.89v-498.97M2055.95 1916.17h-47.86v486.46h47.86v-486.46M2147.48 1786.59h-47.88v497.47h47.88v-497.47M2239.27 1802.35h-47.88v513.49h47.88v-513.49M2331.26 1902.91h-47.88v294.48h47.88v-294.48M309.898 243.359v837.971h273.446V243.359H309.898" style="fill:#002d72;fill-opacity:1;fill-rule:nonzero;stroke:none" transform="matrix(.03528 0 0 -.03528 0 91.581)"/><path d="M966.977 721.25h122.833V532.781H966.977V243.359H690.191v837.971h399.619V878.559H966.977Zm122.833 0h5.06c44.57 0 75.7 5.859 92.54 17.66 16.82 11.781 25.23 31.969 25.23 60.57 0 29.45-8.41 50.489-25.23 61.418-16.84 11.782-48.79 17.661-97.6 17.661v202.771h18.52c131.23 0 224.63-18.51 281-56.36 55.52-37.021 83.3-98.439 83.3-184.259 0-51.332-10.94-94.219-34.5-127.871-22.71-33.66-58.05-60.59-106-79.949 48.78-10.071 84.13-29.45 106-58.039 22.72-29.461 34.5-71.532 36.18-127.891l4.2-116.941c0-.86.84-1.68.84-2.52 1.68-33.648 9.26-51.32 25.25-52.16v-31.981h-283.54c-5.04 20.2-8.42 37.871-10.94 53.012-3.36 15.16-4.21 26.918-4.21 35.348V415c0 42.891-9.24 73.211-26.92 90.84-16.82 17.68-47.11 26.101-89.18 26.941V721.25M1608.9 237.469v837.961h666.36V864.281h-383.65v-129.57h305.37v-202.77h-305.37V237.469H1608.9" style="fill:#002d72;fill-opacity:1;fill-rule:nonzero;stroke:none" transform="matrix(.03528 0 0 -.03528 0 91.581)"/></svg>