<svg xml:space="preserve" width="1710.613" height="373.733" xmlns="http://www.w3.org/2000/svg"><path d="M3073.64 1610.26v489.99h98.94v-489.99h-98.94M3267.83 1610.26v489.99h96.3l200.53-327.21v327.21h91.88v-489.99h-99.25l-197.53 319.52v-319.52h-91.93M3736.08 1769.72l96.27 9.35c5.8-32.35 17.55-56.08 35.27-71.27 17.72-15.1 41.63-22.67 71.69-22.67 31.88 0 55.88 6.72 72.06 20.25 16.12 13.48 24.2 29.2 24.2 47.25 0 11.62-3.41 21.46-10.19 29.6-6.8 8.1-18.67 15.19-35.59 21.22-11.61 4.05-38.01 11.14-79.22 21.34-53.03 13.2-90.24 29.31-111.64 48.5-30.07 26.98-45.13 59.85-45.13 98.6 0 24.99 7.11 48.31 21.26 70.02 14.15 21.78 34.5 38.3 61.16 49.6 26.6 11.42 58.75 17.08 96.42 17.08 61.5 0 107.78-13.48 138.86-40.41 31.1-27 47.42-63 48.97-107.98l-98.94-4.38c-4.22 25.23-13.3 43.28-27.23 54.34-13.95 11.01-34.84 16.55-62.68 16.55-28.73 0-51.23-5.86-67.5-17.73-10.51-7.57-15.73-17.69-15.73-30.4 0-11.59 4.93-21.46 14.73-29.73 12.46-10.48 42.76-21.42 90.89-32.76 48.13-11.37 83.74-23.11 106.82-35.22 23.04-12.23 41.06-28.79 54.12-49.8 13.05-21.14 19.53-47.1 19.53-78.11 0-28.07-7.8-54.31-23.38-78.84-15.59-24.54-37.68-42.73-66.16-54.67-28.53-11.9-64.08-17.9-106.63-17.9-61.94 0-109.5 14.34-142.72 42.96-33.21 28.6-53.03 70.34-59.51 125.21M4328.02 1610.26v407.11h-145.38v82.88h389.4v-82.88h-145.08v-407.11h-98.94M4632.86 1610.26v489.99h98.91v-489.99h-98.91M4936.35 1610.26v407.11h-145.41v82.88h389.39v-82.88h-145.1v-407.11h-98.88M5243.49 2100.25h98.93v-265.42c0-42.11 1.23-69.36 3.68-81.87 4.24-20.04 14.32-36.12 30.25-48.32 15.95-12.1 37.7-18.14 65.34-18.14 28.08 0 49.23 5.68 63.49 17.13 14.27 11.5 22.88 25.64 25.77 42.32 2.9 16.68 4.36 44.46 4.36 83.21v271.09h98.91v-257.41c0-58.79-2.68-100.33-8.03-124.63-5.34-24.29-15.18-44.83-29.58-61.55-14.35-16.64-33.61-29.96-57.64-39.88-24.08-9.92-55.47-14.9-94.29-14.9-46.77 0-82.3 5.47-106.47 16.19-24.15 10.82-43.27 24.91-57.28 42.12-14.03 17.29-23.3 35.43-27.73 54.34-6.46 28.06-9.71 69.52-9.71 124.35v261.37M5848.8 1610.26v407.11h-145.42v82.88h389.4v-82.88h-145.07v-407.11h-98.91M6156.64 1610.26v489.99h363.31v-82.88h-264.37v-108.64h245.98v-82.52h-245.98v-133.38h273.72v-82.57h-372.66M6723.5 1610.26v407.11h-145.4v82.88h389.35v-82.88h-145.03v-407.11h-98.92M7222.2 1610.26v489.99h335.88v-82.88h-236.96v-116.01h204.52v-82.89h-204.52v-208.21h-98.92M7882.9 2128.31v80.58h80.91v-80.58zm-143.75 0v80.58h80.59v-80.58zm-17.66-272.75c0-55.52 12.81-97.5 38.43-126.17 25.64-28.67 58.16-42.89 97.63-42.89 39.44 0 71.8 14.18 97.06 42.52 25.32 28.47 37.95 71.02 37.95 127.87 0 56.17-12.32 98.08-36.93 125.66-24.62 27.65-57.35 41.5-98.08 41.5-40.77 0-73.65-13.96-98.63-42-24.95-27.89-37.43-70.12-37.43-126.49zm-101.91-3.27c0 49.84 7.45 91.71 22.35 125.6 11.14 24.98 26.36 47.38 45.64 67.17 19.28 19.84 40.41 34.62 63.33 44.15 30.54 12.95 65.76 19.38 105.63 19.38 72.21 0 129.94-22.39 173.28-67.17 43.41-44.78 65.06-107.06 65.06-186.87 0-79.08-21.58-140.95-64.58-185.66-43-44.66-100.42-67.01-172.41-67.01-72.89 0-130.79 22.27-173.79 66.73-43.01 44.46-64.51 105.64-64.51 183.68M8271.3 1893.02h73.22c47.45 0 77.08 2.02 88.92 5.98 11.77 4.06 21.04 10.98 27.73 20.79 6.67 9.75 9.99 22.02 9.99 36.76 0 16.48-4.37 29.8-13.19 39.88-8.79 10.21-21.21 16.61-37.26 19.28-8.01 1.09-32.11 1.66-72.23 1.66h-77.18zm-98.92-282.76v489.99h208.25c52.32 0 90.38-4.4 114.15-13.2 23.73-8.83 42.71-24.46 56.97-46.92 14.29-22.56 21.38-48.27 21.38-77.26 0-36.77-10.78-67.14-32.4-91.03-21.62-23.97-53.93-39.04-96.93-45.35 21.38-12.47 39.03-26.2 52.96-41.06 13.93-14.94 32.72-41.46 56.37-79.61l59.76-95.56h-118.32l-71.5 106.62c-25.43 38.1-42.81 62.11-52.16 71.99-9.32 9.92-19.28 16.73-29.76 20.45-10.49 3.64-27.09 5.47-49.77 5.47h-20.08v-204.53h-98.92M8955.86 1893.02h73.12c47.54 0 77.14 2.02 88.92 5.98 11.9 4.06 21.09 10.98 27.78 20.79 6.68 9.75 10.04 22.02 10.04 36.76 0 16.48-4.41 29.8-13.24 39.88-8.78 10.21-21.17 16.61-37.26 19.28-7.96 1.09-32.06 1.66-72.19 1.66h-77.17zm-98.97-282.76v489.99h208.22c52.39 0 90.45-4.4 114.18-13.2 23.73-8.83 42.68-24.46 56.97-46.92 14.22-22.56 21.39-48.27 21.39-77.26 0-36.77-10.81-67.14-32.44-91.03-21.62-23.97-53.89-39.04-96.9-45.35 21.34-12.47 39.08-26.2 52.97-41.06 13.96-14.94 32.75-41.46 56.32-79.61l59.8-95.56h-118.27l-71.59 106.62c-25.35 38.1-42.75 62.11-52.07 71.99-9.4 9.92-19.28 16.73-29.76 20.45-10.5 3.64-27.09 5.47-49.84 5.47h-20.01v-204.53h-98.97M9454.19 1610.26v206.19l-179.49 283.8h115.95l115.33-193.87 112.98 193.87h113.94l-180.11-284.45v-205.54h-98.6M9780.75 1610.26v489.99h148.05l88.9-334.26 87.9 334.26h148.4v-489.99h-91.9v385.72l-97.3-385.72h-95.26l-96.9 385.72v-385.72h-91.89M10450.9 2017.37v-324.54h73.8c27.6 0 47.6 1.5 59.9 4.65 16 4.01 29.3 10.81 39.9 20.37 10.6 9.64 19.2 25.34 25.9 47.33 6.7 21.91 10.1 51.84 10.1 89.73 0 37.91-3.4 66.98-10.1 87.26-6.7 20.29-16 36.04-28.1 47.46-12 11.38-27.3 19.03-45.8 23.04-13.8 3.12-40.8 4.7-81.2 4.7zm-99 82.88h180.8c40.8 0 71.9-3.15 93.3-9.35 28.8-8.5 53.3-23.56 73.9-45.1 20.5-21.67 36-48.16 46.8-79.41 10.7-31.3 16-69.89 16-115.81 0-40.33-5-75.11-15-104.26-12.3-35.64-29.8-64.51-52.5-86.58-17.2-16.72-40.3-29.72-69.5-39.11-21.9-6.88-51-10.37-87.6-10.37h-186.2v489.99M10847.3 1610.26v489.99h335.9v-82.88h-237v-116.01h204.5v-82.89h-204.5v-208.21h-98.9M11393.4 1610.26v206.19l-179.5 283.8h116l115.3-193.87 113 193.87h113.9L11492 1815.8v-205.54h-98.6M11696.3 1769.72l96.2 9.35c5.9-32.35 17.5-56.08 35.2-71.27 17.8-15.1 41.7-22.67 71.7-22.67 31.9 0 55.9 6.72 72.1 20.25 16.1 13.48 24.2 29.2 24.2 47.25 0 11.62-3.4 21.46-10.2 29.6-6.8 8.1-18.6 15.19-35.6 21.22-11.6 4.05-38 11.14-79.2 21.34-53 13.2-90.3 29.31-111.6 48.5-30.1 26.98-45.2 59.85-45.2 98.6 0 24.99 7.1 48.31 21.2 70.02 14.2 21.78 34.7 38.3 61.2 49.6 26.7 11.42 58.8 17.08 96.4 17.08 61.5 0 107.9-13.48 138.9-40.41 31.1-27 47.4-63 49-107.98l-99-4.38c-4.2 25.23-13.3 43.28-27.2 54.34-13.8 11.01-34.8 16.55-62.7 16.55-28.7 0-51.2-5.86-67.4-17.73-10.5-7.57-15.7-17.69-15.7-30.4 0-11.59 4.8-21.46 14.7-29.73 12.5-10.48 42.7-21.42 90.9-32.76 48.1-11.37 83.7-23.11 106.7-35.22 23.1-12.23 41.1-28.79 54.2-49.8 13-21.14 19.5-47.1 19.5-78.11 0-28.07-7.8-54.31-23.4-78.84-15.6-24.54-37.6-42.73-66.2-54.67-28.5-11.9-64-17.9-106.6-17.9-61.9 0-109.5 14.34-142.7 42.96-33.2 28.6-53 70.34-59.4 125.21M12174.9 1610.26v489.99h98.9v-489.99h-98.9M12369.4 1610.26v489.99h98.9v-217.6l199.9 217.6h133l-184.5-190.84 194.6-299.15h-128l-134.8 229.91-80.2-81.83v-148.08h-98.9M3049.52 872.281l88.24 8.578c5.35-29.64 16.09-51.429 32.33-65.359 16.23-13.84 38.15-20.809 65.7-20.809 29.23 0 51.24 6.239 66.04 18.539 14.8 12.399 22.23 26.821 22.23 43.411 0 10.621-3.14 19.597-9.37 27.129-6.22 7.46-17.11 13.859-32.6 19.429-10.65 3.66-34.84 10.223-72.64 19.602-48.61 12.07-82.73 26.898-102.35 44.39-27.53 24.7-41.34 54.909-41.34 90.379 0 22.91 6.52 44.3 19.47 64.22 12.93 19.92 31.64 35.07 56.03 45.51 24.43 10.45 53.89 15.63 88.44 15.63 56.38 0 98.8-12.47 127.26-37.09 28.52-24.7 43.46-57.74 44.91-98.96l-90.69-3.97c-3.86 23.08-12.23 39.68-24.96 49.81-12.78 10.12-31.91 15.14-57.48 15.14-26.34 0-46.97-5.43-61.86-16.28-9.6-6.88-14.42-16.2-14.42-27.86 0-10.61 4.49-19.75 13.5-27.21 11.46-9.63 39.19-19.6 83.31-30.12 44.12-10.37 76.78-21.148 97.88-32.32 21.17-11.09 37.75-26.32 49.62-45.59 12-19.359 17.95-43.171 17.95-71.589 0-25.762-7.13-49.809-21.44-72.321-14.28-22.441-34.52-39.109-60.65-50.05-26.17-10.938-58.72-16.438-97.73-16.438-56.79 0-100.38 13.117-130.85 39.438-30.43 26.242-48.59 64.539-54.53 114.761M3530.98 726.102l-102.93 325.388h83.63l60.98-213.228 56.09 213.228h83.02l54.22-213.228 62.17 213.228h84.9l-104.5-325.388h-82.72l-56.05 209.257-55.16-209.257h-83.65M4131.65 916.648c-.63 24.942-7.08 43.821-19.32 56.864-12.26 12.957-27.17 19.429-44.76 19.429-18.77 0-34.27-6.882-46.54-20.492-12.25-13.769-18.28-32.308-18.11-55.801zm-4.92-86.968 85.78-14.418c-11.01-31.5-28.42-55.391-52.25-71.832-23.79-16.438-53.55-24.711-89.3-24.711-56.58 0-98.44 18.48-125.63 55.48-21.4 29.563-32.14 66.981-32.14 112.082 0 53.86 14.1 96.207 42.28 126.829 28.16 30.52 63.82 45.67 106.92 45.67 48.41 0 86.59-15.95 114.57-47.94 28.03-31.899 41.39-80.82 40.15-146.899h-215.68c.59-25.519 7.53-45.429 20.83-59.601 13.28-14.18 29.81-21.231 49.65-21.231 13.46 0 24.8 3.653 33.99 11.012 9.19 7.301 16.12 19.199 20.83 35.559M4335.81 895.84c0-34.66 4.82-59.848 14.42-75.391 13.89-22.508 33.26-33.687 58.18-33.687 19.85 0 36.69 8.418 50.58 25.258 13.89 16.851 20.82 42.031 20.82 75.562 0 37.418-6.71 64.227-20.22 80.738-13.48 16.442-30.73 24.621-51.78 24.621-20.39 0-37.54-8.101-51.31-24.371-13.79-16.211-20.69-40.488-20.69-72.73zm229.82-169.738h-79.97v47.777c-13.29-18.629-28.99-32.469-47.04-41.469-18.12-9.148-36.3-13.691-54.68-13.691-37.4 0-69.45 15.082-96.05 45.203-26.67 30.117-39.99 72.16-39.99 126.09 0 55.16 12.96 97.097 38.88 125.768 25.95 28.74 58.73 43 98.4 43 36.31 0 67.79-15.06 94.34-45.35v161.81h86.11V726.102M4630.39 726.102v325.388h86.1V726.102Zm0 369.528v79.61h86.1v-79.61h-86.1M4754.36 818.91l86.38 13.199c3.65-16.769 11.16-29.48 22.34-38.14 11.26-8.75 27-13.129 47.21-13.129 22.25 0 39.02 4.211 50.25 12.32 7.54 5.75 11.34 13.352 11.34 22.988 0 6.493-2.07 12-6.16 16.204-4.27 4.14-13.88 7.937-28.79 11.328-69.42 15.39-113.46 29.332-132.04 42.039-25.73 17.57-38.59 41.953-38.59 73.211 0 28.261 11.11 51.91 33.41 71.1 22.23 19.11 56.75 28.75 103.54 28.75 44.51 0 77.62-7.29 99.26-21.7 21.65-14.5 36.59-35.96 44.75-64.299l-81.2-15.062c-3.5 12.703-10.07 22.429-19.78 29.07-9.71 6.793-23.52 10.121-41.48 10.121-22.71 0-38.93-3.16-48.73-9.48-6.56-4.45-9.8-10.371-9.8-17.489 0-6.07 2.84-11.339 8.56-15.632 7.77-5.668 34.58-13.758 80.41-24.118 45.87-10.461 77.88-23.171 96.08-38.312 17.96-15.387 26.97-36.688 26.97-64.07 0-29.868-12.47-55.469-37.39-76.84-24.92-21.547-61.75-32.25-110.61-32.25-44.31 0-79.38 9.082-105.26 26.98-25.81 17.891-42.72 42.442-50.67 73.211M5199.35 1175.24v-165.13c27.77 32.48 60.97 48.67 99.56 48.67 19.81 0 37.7-3.64 53.61-10.94 15.98-7.36 27.94-16.83 36.02-28.26 8.06-11.42 13.56-24.131 16.54-37.978 2.98-13.852 4.45-35.391 4.45-64.704V726.102h-86.1v171.929c0 34.09-1.64 55.707-4.92 64.949-3.27 9.149-8.99 16.43-17.29 21.86-8.29 5.422-18.66 8.101-31.1 8.101-14.29 0-27.07-3.48-38.26-10.359-11.25-6.961-19.52-17.492-24.7-31.434-5.21-14.007-7.81-34.656-7.81-62.117V726.102h-86.09v449.138h86.09M5628.88 726.102v449.138h90.66V726.102h-90.66M6081.25 726.102h-86.12v166.019c0 35.219-1.84 57.981-5.53 68.18-3.66 10.359-9.63 18.39-17.92 24.058-8.23 5.75-18.2 8.582-29.86 8.582-14.88 0-28.28-4.043-40.17-12.23-11.81-8.172-19.96-18.941-24.33-32.469-4.42-13.531-6.58-38.461-6.58-74.75v-147.39h-86.05v325.388h79.89v-47.86c28.39 36.85 64.17 55.15 107.29 55.15 18.96 0 36.28-3.32 52.06-10.2 15.74-6.89 27.6-15.63 35.72-26.24 8-10.61 13.68-22.59 16.81-36.121 3.17-13.438 4.79-32.797 4.79-57.899V726.102M6118.12 818.91l86.42 13.199c3.68-16.769 11.13-29.48 22.34-38.14 11.24-8.75 26.95-13.129 47.24-13.129 22.23 0 38.97 4.211 50.23 12.32 7.53 5.75 11.31 13.352 11.31 22.988 0 6.493-2.06 12-6.13 16.204-4.29 4.14-13.87 7.937-28.81 11.328-69.43 15.39-113.45 29.332-132 42.039-25.74 17.57-38.67 41.953-38.67 73.211 0 28.261 11.14 51.91 33.42 71.1 22.3 19.11 56.81 28.75 103.58 28.75 44.48 0 77.58-7.29 99.27-21.7 21.64-14.5 36.56-35.96 44.72-64.299l-81.22-15.062c-3.47 12.703-10.02 22.429-19.75 29.07-9.69 6.793-23.54 10.121-41.53 10.121-22.63 0-38.86-3.16-48.71-9.48-6.53-4.45-9.81-10.371-9.81-17.489 0-6.07 2.92-11.339 8.6-15.632 7.8-5.668 34.52-13.758 80.44-24.118 45.84-10.461 77.89-23.171 96.01-38.312 17.96-15.387 27.01-36.688 27.01-64.07 0-29.868-12.5-55.469-37.4-76.84-24.92-21.547-61.79-32.25-110.56-32.25-44.36 0-79.47 9.082-105.28 26.98-25.86 17.891-42.76 42.442-50.72 73.211M6626.52 1051.49v-68.681h-58.8V851.711c0-26.57.57-42.031 1.66-46.41 1.19-4.371 3.69-8.012 7.7-10.93 3.93-2.75 8.87-4.211 14.53-4.211 7.98 0 19.52 2.672 34.66 8.262l7.33-66.813c-20-8.578-42.71-12.89-68.06-12.89-15.46 0-29.48 2.601-41.95 7.863-12.39 5.188-21.62 11.988-27.37 20.168-5.88 8.34-9.88 19.441-12.11 33.609-1.9 10.039-2.79 30.211-2.79 60.582v141.868h-39.54v68.681h39.54v64.71l86.4 50.21v-114.92h58.8M6666.2 726.102v325.388h86.09V726.102Zm0 369.528v79.61h86.09v-79.61h-86.09M6969.65 1051.49v-68.681h-58.84V851.711c0-26.57.53-42.031 1.75-46.41 1.05-4.371 3.6-8.012 7.61-10.93 4-2.75 8.86-4.211 14.62-4.211 7.9 0 19.48 2.672 34.54 8.262l7.41-66.813c-20.01-8.578-42.73-12.89-68.03-12.89-15.47 0-29.52 2.601-41.99 7.863-12.47 5.188-21.63 11.988-27.41 20.168-5.79 8.34-9.8 19.441-12.11 33.609-1.78 10.039-2.72 30.211-2.72 60.582v141.868h-39.56v68.681h39.56v64.71l86.33 50.21v-114.92h58.84M7223.49 726.102v48.679c-11.87-17.34-27.41-31.031-46.69-40.98-19.31-10.051-39.67-15.082-61.18-15.082-21.82 0-41.5 4.793-58.75 14.429-17.37 9.633-29.97 23.071-37.78 40.411-7.73 17.332-11.54 41.382-11.54 72v205.931h86V902c0-45.762 1.66-73.852 4.74-84.148 3.2-10.282 8.95-18.461 17.33-24.454 8.46-6.078 19.03-9.148 31.87-9.148 14.74 0 27.94 4.121 39.56 12.148 11.61 8.082 19.56 18.133 23.93 30.043 4.22 11.981 6.39 41.219 6.39 87.778v137.271h86.01V726.102h-79.89M7521.79 1051.49v-68.681h-58.82V851.711c0-26.57.6-42.031 1.69-46.41 1.09-4.371 3.6-8.012 7.69-10.93 3.93-2.75 8.79-4.211 14.46-4.211 8.01 0 19.52 2.672 34.66 8.262l7.33-66.813c-20.04-8.578-42.68-12.89-67.99-12.89-15.55 0-29.51 2.601-41.95 7.863-12.46 5.188-21.61 11.988-27.4 20.168-5.92 8.34-9.93 19.441-12.11 33.609-1.91 10.039-2.85 30.211-2.85 60.582v141.868h-39.48v68.681h39.48v64.71l86.47 50.21v-114.92h58.82M7754.79 916.648c-.61 24.942-7.06 43.821-19.28 56.864-12.31 12.957-27.21 19.429-44.78 19.429-18.79 0-34.34-6.882-46.6-20.492-12.28-13.769-18.31-32.308-18.07-55.801zm-4.95-86.968 85.81-14.418c-11.06-31.5-28.39-55.391-52.27-71.832-23.78-16.438-53.59-24.711-89.25-24.711-56.57 0-98.48 18.48-125.68 55.48-21.38 29.563-32.16 66.981-32.16 112.082 0 53.86 14.13 96.207 42.35 126.829 28.15 30.52 63.78 45.67 106.91 45.67 48.39 0 86.57-15.95 114.59-47.94 27.94-31.899 41.3-80.82 40.08-146.899h-215.7c.69-25.519 7.58-45.429 20.82-59.601 13.31-14.18 29.85-21.231 49.73-21.231 13.47 0 24.72 3.653 33.96 11.012 9.15 7.301 16.12 19.199 20.81 35.559M8112.9 888.801c0-32.309 7.61-56.93 23-74.192 15.22-17.078 34.25-25.66 56.69-25.66 22.43 0 41.26 8.582 56.52 25.66 15.14 17.262 22.83 42.121 22.83 74.762 0 31.899-7.69 56.348-22.83 73.609-15.26 17.168-34.09 25.75-56.52 25.75-22.44 0-41.47-8.582-56.69-25.75-15.39-17.261-23-41.949-23-74.179zm-88.28 4.531c0 28.668 7.13 56.367 21.14 83.168 14.21 26.65 34.1 47.13 59.92 61.23 25.92 14.01 54.76 21.05 86.59 21.05 49.19 0 89.6-15.95 120.98-47.94 31.42-31.899 47.22-72.238 47.22-121.149 0-49.16-15.88-90.062-47.67-122.371-31.74-32.39-71.71-48.601-119.98-48.601-29.79 0-58.3 6.742-85.27 20.179-27.09 13.524-47.58 33.364-61.79 59.274-14.01 26.16-21.14 57.898-21.14 95.16M8370.11 1051.49h47.77v24.54c0 27.29 2.92 47.78 8.75 61.15 5.82 13.51 16.6 24.53 32.15 32.95 15.7 8.51 35.43 12.8 59.28 12.8 24.49 0 48.55-3.73 71.99-11.09l-11.66-60.1c-13.68 3.32-26.8 4.95-39.52 4.95-12.4 0-21.38-2.92-26.76-8.67-5.38-5.83-8.06-17.08-8.06-33.61v-22.92h64.22v-67.619h-64.22V726.102h-86.17v257.769h-47.77v67.619M8728.54 872.281l88.19 8.578c5.34-29.64 16.19-51.429 32.3-65.359 16.25-13.84 38.24-20.809 65.77-20.809 29.23 0 51.18 6.239 66.04 18.539 14.81 12.399 22.2 26.821 22.2 43.411 0 10.621-3.18 19.597-9.36 27.129-6.2 7.46-17.09 13.859-32.64 19.429-10.61 3.66-34.78 10.223-72.56 19.602-48.59 12.07-82.77 26.898-102.41 44.39-27.5 24.7-41.26 54.909-41.26 90.379 0 22.91 6.4 44.3 19.44 64.22 12.92 19.92 31.66 35.07 56.04 45.51 24.46 10.45 53.85 15.63 88.36 15.63 56.36 0 98.79-12.47 127.39-37.09 28.49-24.7 43.4-57.74 44.86-98.96l-90.7-3.97c-3.9 23.08-12.28 39.68-24.95 49.81-12.8 10.12-31.99 15.14-57.5 15.14-26.31 0-47.05-5.43-61.87-16.28-9.64-6.88-14.45-16.2-14.45-27.86 0-10.61 4.54-19.75 13.52-27.21 11.46-9.63 39.19-19.6 83.29-30.12 44.14-10.37 76.77-21.148 97.96-32.32 21.13-11.09 37.66-26.32 49.59-45.59 11.99-19.359 17.9-43.171 17.9-71.589 0-25.762-7.13-49.809-21.34-72.321-14.37-22.441-34.54-39.109-60.77-50.05-26.12-10.938-58.72-16.438-97.71-16.438-56.81 0-100.38 13.117-130.83 39.438-30.45 26.242-48.6 64.539-54.5 114.761M9232.09 894.391c0-36.692 7.22-63.661 21.71-81.161 14.49-17.488 32.19-26.23 53.05-26.23 20 0 36.68 8.102 49.88 24.129 13.24 15.961 20 42.363 20 78.883 0 34.09-6.96 59.437-20.58 75.968-13.68 16.602-30.68 24.86-50.94 24.86-21 0-38.46-8.18-52.31-24.379-13.93-16.281-20.81-40.25-20.81-72.07zm-85.19 157.099h80.3v-47.86c10.32 16.36 24.49 29.64 42.22 39.85 17.83 10.28 37.5 15.3 59.16 15.3 37.7 0 69.86-14.81 96.18-44.37 26.39-29.648 39.47-70.871 39.47-123.75 0-54.34-13.24-96.621-39.72-126.738-26.56-30.121-58.75-45.203-96.53-45.203-18.02 0-34.25 3.582-48.92 10.703-14.58 7.207-29.92 19.437-46.07 36.769v-163.91h-86.09v449.209M9692.08 882.398c-11.02-3.808-28.5-8.179-52.4-13.277-23.88-5.019-39.47-10.051-46.8-14.98-11.26-7.942-16.88-18.059-16.88-30.289 0-12.071 4.44-22.52 13.39-31.262 9.08-8.828 20.49-13.199 34.34-13.199 15.56 0 30.37 5.101 44.38 15.3 10.53 7.86 17.33 17.25 20.57 28.59 2.31 7.289 3.4 21.289 3.4 41.867zm-115.16 69.813-78.15 14.09c8.71 31.418 23.86 54.749 45.35 69.799 21.42 15.23 53.25 22.68 95.56 22.68 38.4 0 67.02-4.45 85.76-13.6 18.8-9.08 32.08-20.57 39.69-34.58 7.69-14.01 11.5-39.69 11.5-77.018l-.9-100.5c0-28.672 1.34-49.73 4.06-63.262 2.84-13.601 8.01-28.25 15.55-43.718h-85.19c-2.24 5.668-5.03 14.25-8.27 25.429-1.46 5.098-2.47 8.418-3.08 10.117-14.73-14.257-30.45-25.019-47.13-32.226-16.76-7.121-34.66-10.703-53.69-10.703-33.45 0-59.85 9.082-79.16 27.301-19.28 18.23-28.96 41.14-28.96 68.921 0 18.469 4.37 34.739 13.21 49.161 8.75 14.41 21 25.418 36.88 33.117 15.84 7.613 38.59 14.332 68.48 20.09 40.2 7.523 68.14 14.57 83.65 21.132v8.579c0 16.531-4.13 28.351-12.27 35.39-8.18 7.051-23.61 10.531-46.28 10.531-15.31 0-27.21-2.992-35.8-8.98-8.58-6.082-15.54-16.691-20.81-31.75M10125.1 955.199l-84.8-15.219c-2.9 16.93-9.4 29.641-19.5 38.219-10.1 8.59-23.21 12.961-39.36 12.961-21.42 0-38.55-7.531-51.31-22.269-12.71-14.743-19.18-39.602-19.18-74.27 0-38.551 6.5-65.922 19.46-81.871 12.96-15.859 30.42-23.801 52.24-23.801 16.36 0 29.75 4.621 40.15 13.922 10.4 9.238 17.8 25.277 22 47.859l84.6-14.332c-8.8-38.789-25.6-68.187-50.5-87.949-24.9-19.758-58.4-29.73-100.26-29.73-47.54 0-85.51 15.082-113.82 45.043-28.22 30.039-42.39 71.578-42.39 124.707 0 53.773 14.17 95.562 42.54 125.451 28.44 29.88 66.87 44.86 115.25 44.86 39.68 0 71.18-8.51 94.58-25.51 23.3-17.01 40.1-43.079 50.3-78.071M10363.6 916.648c-.6 24.942-7 43.821-19.2 56.864-12.3 12.957-27.2 19.429-44.7 19.429-18.9 0-34.4-6.882-46.6-20.492-12.3-13.769-18.3-32.308-18.1-55.801zm-4.8-86.968 85.7-14.418c-11-31.5-28.4-55.391-52.2-71.832-23.8-16.438-53.5-24.711-89.4-24.711-56.4 0-98.4 18.48-125.5 55.48-21.5 29.563-32.2 66.981-32.2 112.082 0 53.86 14.1 96.207 42.3 126.829 28.2 30.52 63.9 45.67 106.9 45.67 48.5 0 86.6-15.95 114.5-47.94 28-31.899 41.5-80.82 40.3-146.899h-215.7c.6-25.519 7.5-45.429 20.8-59.601 13.2-14.18 29.9-21.231 49.6-21.231 13.5 0 24.8 3.653 34.1 11.012 9.1 7.301 16 19.199 20.8 35.559M10744.7 1099.28V971.809h49.7c35.7 0 59.6 2.339 71.7 7.132 12 4.61 21.5 11.981 28.3 22.029 6.8 9.95 10.2 21.61 10.2 34.81 0 16.44-4.8 29.88-14.3 40.41-9.6 10.77-21.8 17.34-36.5 20.01-10.9 2.02-32.5 3.08-65.3 3.08zm-90.6-373.178v449.138h145.5c55.1 0 91-2.27 107.8-6.72 25.8-6.73 47.3-21.38 64.7-43.9 17.3-22.6 26-51.83 26-87.54 0-27.53-5-50.779-15-69.568-10-18.871-22.7-33.52-38.2-44.301-15.3-10.602-31-17.731-46.9-21.211-21.7-4.371-53.1-6.391-94.1-6.391h-59.2V726.102h-90.6M11137.7 1175.24v-165.13c27.8 32.48 61 48.67 99.6 48.67 19.8 0 37.6-3.64 53.6-10.94 15.9-7.36 27.9-16.83 36-28.26 8.1-11.42 13.6-24.131 16.6-37.978 2.9-13.852 4.4-35.391 4.4-64.704V726.102h-86.2v171.929c0 34.09-1.6 55.707-4.8 64.949-3.3 9.149-9 16.43-17.3 21.86-8.3 5.422-18.7 8.101-31.1 8.101-14.4 0-27.1-3.48-38.3-10.359-11.3-6.961-19.6-17.492-24.7-31.434-5.2-14.007-7.8-34.656-7.8-62.117V726.102h-86.1v449.138h86.1M11374.3 1051.49h91.7l77.7-231.041 76 231.041h89.2L11594 738.32l-20.5-56.679c-7.6-18.95-14.7-33.45-21.6-43.411-6.9-10.039-14.7-18.218-23.6-24.46-8.9-6.231-19.8-11.008-32.8-14.489-13-3.57-27.6-5.191-43.9-5.191-16.6 0-32.8 1.621-48.8 5.191l-7.6 67.379c13.4-2.601 25.6-3.969 36.5-3.969 20 0 34.8 5.84 44.4 17.571 9.6 11.738 16.9 26.797 22 44.957l-123.8 326.271M11713.7 818.91l86.3 13.199c3.7-16.769 11.2-29.48 22.4-38.14 11.2-8.75 27-13.129 47.2-13.129 22.3 0 39 4.211 50.3 12.32 7.5 5.75 11.3 13.352 11.3 22.988 0 6.493-2.1 12-6.2 16.204-4.2 4.14-13.8 7.937-28.7 11.328-69.5 15.39-113.5 29.332-132 42.039-25.8 17.57-38.8 41.953-38.8 73.211 0 28.261 11.2 51.91 33.5 71.1 22.3 19.11 56.8 28.75 103.6 28.75 44.4 0 77.6-7.29 99.2-21.7 21.7-14.5 36.6-35.96 44.8-64.299l-81.2-15.062c-3.5 12.703-10.1 22.429-19.8 29.07-9.8 6.793-23.5 10.121-41.6 10.121-22.6 0-38.8-3.16-48.6-9.48-6.6-4.45-9.8-10.371-9.8-17.489 0-6.07 2.8-11.339 8.6-15.632 7.7-5.668 34.5-13.758 80.4-24.118 45.8-10.461 77.9-23.171 96-38.312 18.1-15.387 27-36.688 27-64.07 0-29.868-12.5-55.469-37.4-76.84-24.9-21.547-61.8-32.25-110.6-32.25-44.3 0-79.4 9.082-105.2 26.98-25.9 17.891-42.7 42.442-50.7 73.211M12072.9 726.102v325.388h86V726.102Zm0 369.528v79.61h86v-79.61h-86M12510.9 955.199l-84.9-15.219c-2.8 16.93-9.4 29.641-19.5 38.219-10.1 8.59-23.2 12.961-39.4 12.961-21.4 0-38.5-7.531-51.3-22.269-12.8-14.743-19.2-39.602-19.2-74.27 0-38.551 6.5-65.922 19.6-81.871 12.9-15.859 30.3-23.801 52.2-23.801 16.4 0 29.7 4.621 40 13.922 10.5 9.238 17.9 25.277 22.1 47.859l84.6-14.332c-8.7-38.789-25.5-68.187-50.5-87.949-24.9-19.758-58.3-29.73-100.3-29.73-47.5 0-85.4 15.082-113.8 45.043-28.2 30.039-42.3 71.578-42.3 124.707 0 53.773 14.1 95.562 42.5 125.451 28.4 29.88 66.8 44.86 115.2 44.86 39.6 0 71.2-8.51 94.5-25.51 23.5-17.01 40.2-43.079 50.5-78.071M12525.7 818.91l86.4 13.199c3.7-16.769 11.1-29.48 22.3-38.14 11.2-8.75 27-13.129 47.3-13.129 22.1 0 38.9 4.211 50.2 12.32 7.5 5.75 11.3 13.352 11.3 22.988 0 6.493-2 12-6.1 16.204-4.3 4.14-13.8 7.937-28.9 11.328-69.4 15.39-113.4 29.332-131.9 42.039-25.7 17.57-38.7 41.953-38.7 73.211 0 28.261 11.1 51.91 33.4 71.1 22.3 19.11 56.8 28.75 103.5 28.75 44.6 0 77.7-7.29 99.4-21.7 21.6-14.5 36.5-35.96 44.6-64.299l-81.1-15.062c-3.5 12.703-10.1 22.429-19.8 29.07-9.6 6.793-23.5 10.121-41.5 10.121-22.6 0-39-3.16-48.7-9.48-6.5-4.45-9.9-10.371-9.9-17.489 0-6.07 3-11.339 8.7-15.632 7.7-5.668 34.6-13.758 80.4-24.118 45.9-10.461 77.9-23.171 96.1-38.312 17.9-15.387 26.9-36.688 26.9-64.07 0-29.868-12.4-55.469-37.4-76.84-24.9-21.547-61.7-32.25-110.5-32.25-44.4 0-79.5 9.082-105.3 26.98-25.8 17.891-42.8 42.442-50.7 73.211" style="fill:#fff;fill-opacity:1;fill-rule:nonzero;stroke:none" transform="matrix(.13333 0 0 -.13333 0 373.733)"/><path d="M3072.04 1390.42h9739.46" style="fill:none;stroke:#fff;stroke-width:40;stroke-linecap:butt;stroke-linejoin:miter;stroke-miterlimit:4;stroke-dasharray:none;stroke-opacity:1" transform="matrix(.13333 0 0 -.13333 0 373.733)"/><path d="M2750.86 200.262c0-91.981-75.14-167.063-166.98-167.063H203.324c-91.793 0-166.863 75.082-166.863 167.063V2600.01c0 91.92 75.07 166.9 166.863 166.9H2583.88c91.84 0 166.98-74.98 166.98-166.9zM2588.18 2802.95H196.344C88.309 2802.95 0 2714.52 0 2606.56V196.391C0 88.261 88.309 0 196.344 0H2588.18c108.02 0 196.35 88.262 196.35 196.391V2606.56c0 107.96-88.33 196.39-196.35 196.39" style="fill:#fff;fill-opacity:1;fill-rule:nonzero;stroke:none" transform="matrix(.13333 0 0 -.13333 0 373.733)"/><path d="M333.77 1533.77h-51.868v569.89h51.868v-569.89M438.789 1675.41h-51.711V2293h51.711v-617.59M532.934 1849.37h-51.672v536.76h51.672v-536.76M632.641 1615.32h-51.844v519.76h51.844v-519.76M732.188 1818.11h-51.7v507.36h51.7v-507.36M830.793 2023.72h-51.832v486.96h51.832v-486.96M931.418 1609.17h-51.75v696.86h51.75v-696.86M1029.95 1532.96h-51.829v711.36h51.829v-711.36M1126.22 2008.58h-51.63v318.02h51.63v-318.02M1127.39 1160.99h-51.84v403.4h51.84v-403.4M1229.17 1247.55h-51.79v947.94h51.79v-947.94M1327.75 1470.85h-51.6v1122.27h51.6V1470.85M1425.7 1612.65H1374v1025.58h51.7V1612.65M1527.35 1421.53h-51.75v949.13h51.75v-949.13M1624.43 1376.31h-51.72V2037h51.72v-660.69M1725.89 1470.44h-51.7v425.9h51.7v-425.9M1821.97 1376.48h-51.71v868.09h51.71v-868.09M1920.69 1456.19h-51.74v1120.33h51.74V1456.19M2022.11 1691.61h-51.59v991.64h51.59v-991.64M2121.03 2085.03h-51.71v538.7h51.71v-538.7M2219.84 2068.92h-51.74v525.25h51.74v-525.25M2318.62 1928.89h-51.7v537.01h51.7v-537.01M2417.75 1946.14h-51.71v554.25h51.71v-554.25M2517.04 2054.58h-51.76v318.02h51.76v-318.02M334.563 262.621v905.009h295.183V262.621H334.563" style="fill:#fff;fill-opacity:1;fill-rule:nonzero;stroke:none" transform="matrix(.13333 0 0 -.13333 0 373.733)"/><path d="M1043.98 778.82h132.78V575.23h-132.78V262.621H745.133v905.009h431.627V948.641h-132.78zm132.78 0h5.33c48.12 0 81.72 6.16 99.9 19.121 18.17 12.457 27.29 34.489 27.29 65.27 0 31.738-9.12 54.418-27.29 66.32-18.18 12.641-52.61 19.11-105.23 19.11v218.989h19.94c141.66 0 242.48-20.09 303.35-61.07 59.91-39.92 89.9-106.25 89.9-198.888 0-55.32-11.82-101.801-37.19-138.082-24.52-36.281-62.71-65.348-114.51-86.34 52.7-11 90.81-31.809 114.51-62.59 24.53-31.898 37.19-77.262 39.12-138.148l4.45-126.27c0-.972.87-1.941.87-2.672 1.89-36.359 10.05-55.39 27.33-56.281v-34.668h-306.19c-5.45 21.789-9.06 40.91-11.83 57.188-3.6 16.523-4.47 29.07-4.47 38.371v89.832c0 46.398-10 79.027-29.05 98.23-18.23 18.949-50.97 27.93-96.23 28.988v203.59M1737.19 256.469v904.671h719.41V933.102h-414.21v-140.02h329.7v-218.91h-329.7V256.469h-305.2" style="fill:#fff;fill-opacity:1;fill-rule:nonzero;stroke:none" transform="matrix(.13333 0 0 -.13333 0 373.733)"/></svg>