<?xml version="1.0" encoding="UTF-8" standalone="no"?>
<!-- Created with Inkscape (http://www.inkscape.org/) -->

<svg
   version="1.1"
   id="svg2"
   xml:space="preserve"
   width="294.05334"
   height="296.06668"
   viewBox="0 0 294.05334 296.06668"
   sodipodi:docname="irflogo_vektortransp_svart.eps"
   xmlns:inkscape="http://www.inkscape.org/namespaces/inkscape"
   xmlns:sodipodi="http://sodipodi.sourceforge.net/DTD/sodipodi-0.dtd"
   xmlns="http://www.w3.org/2000/svg"
   xmlns:svg="http://www.w3.org/2000/svg"><defs
     id="defs6" /><sodipodi:namedview
     id="namedview4"
     pagecolor="#ffffff"
     bordercolor="#666666"
     borderopacity="1.0"
     inkscape:pageshadow="2"
     inkscape:pageopacity="0.0"
     inkscape:pagecheckerboard="0" /><g
     id="g8"
     inkscape:groupmode="layer"
     inkscape:label="ink_ext_XXXXXX"
     transform="matrix(1.3333333,0,0,-1.3333333,0,296.06667)"><g
       id="g10"
       transform="scale(0.1)"><path
         d="M 871.918,925.211 V 1240.56"
         style="fill:#231f20;fill-opacity:1;fill-rule:nonzero;stroke:none"
         id="path12" /><path
         d="M 871.918,925.211 V 1240.56"
         style="fill:none;stroke:#231f20;stroke-width:48.96;stroke-linecap:butt;stroke-linejoin:round;stroke-miterlimit:4;stroke-dasharray:none;stroke-opacity:1"
         id="path14" /><path
         d="m 794.883,1216.09 v 563.04"
         style="fill:#231f20;fill-opacity:1;fill-rule:nonzero;stroke:none"
         id="path16" /><path
         d="m 794.883,1216.09 v 563.04"
         style="fill:none;stroke:#231f20;stroke-width:48.96;stroke-linecap:butt;stroke-linejoin:round;stroke-miterlimit:4;stroke-dasharray:none;stroke-opacity:1"
         id="path18" /><path
         d="M 716.402,1828.08 V 1278"
         style="fill:#231f20;fill-opacity:1;fill-rule:nonzero;stroke:none"
         id="path20" /><path
         d="M 716.402,1828.08 V 1278"
         style="fill:none;stroke:#231f20;stroke-width:48.96;stroke-linecap:butt;stroke-linejoin:round;stroke-miterlimit:4;stroke-dasharray:none;stroke-opacity:1"
         id="path22" /><path
         d="m 479.52,1279.45 v 413.28"
         style="fill:#231f20;fill-opacity:1;fill-rule:nonzero;stroke:none"
         id="path24" /><path
         d="m 479.52,1279.45 v 413.28"
         style="fill:none;stroke:#231f20;stroke-width:48.96;stroke-linecap:butt;stroke-linejoin:round;stroke-miterlimit:4;stroke-dasharray:none;stroke-opacity:1"
         id="path26" /><path
         d="M 558.004,1843.2 V 1440.72"
         style="fill:#231f20;fill-opacity:1;fill-rule:nonzero;stroke:none"
         id="path28" /><path
         d="M 558.004,1843.2 V 1440.72"
         style="fill:none;stroke:#231f20;stroke-width:48.96;stroke-linecap:butt;stroke-linejoin:round;stroke-miterlimit:4;stroke-dasharray:none;stroke-opacity:1"
         id="path30" /><path
         d="m 401.039,1466.64 v 424.8"
         style="fill:#231f20;fill-opacity:1;fill-rule:nonzero;stroke:none"
         id="path32" /><path
         d="m 401.039,1466.64 v 424.8"
         style="fill:none;stroke:#231f20;stroke-width:48.96;stroke-linecap:butt;stroke-linejoin:round;stroke-miterlimit:4;stroke-dasharray:none;stroke-opacity:1"
         id="path34" /><path
         d="M 324.723,1817.28 V 1329.13"
         style="fill:#231f20;fill-opacity:1;fill-rule:nonzero;stroke:none"
         id="path36" /><path
         d="M 324.723,1817.28 V 1329.13"
         style="fill:none;stroke:#231f20;stroke-width:48.96;stroke-linecap:butt;stroke-linejoin:round;stroke-miterlimit:4;stroke-dasharray:none;stroke-opacity:1"
         id="path38" /><path
         d="m 242.641,1216.09 v 451.43"
         style="fill:#231f20;fill-opacity:1;fill-rule:nonzero;stroke:none"
         id="path40" /><path
         d="m 242.641,1216.09 v 451.43"
         style="fill:none;stroke:#231f20;stroke-width:48.96;stroke-linecap:butt;stroke-linejoin:round;stroke-miterlimit:4;stroke-dasharray:none;stroke-opacity:1"
         id="path42" /><path
         d="M 636.48,1604.16 V 1990.8"
         style="fill:#231f20;fill-opacity:1;fill-rule:nonzero;stroke:none"
         id="path44" /><path
         d="M 636.48,1604.16 V 1990.8"
         style="fill:none;stroke:#231f20;stroke-width:48.96;stroke-linecap:butt;stroke-linejoin:round;stroke-miterlimit:4;stroke-dasharray:none;stroke-opacity:1"
         id="path46" /><path
         d="M 871.918,1843.2 V 1592.65"
         style="fill:#231f20;fill-opacity:1;fill-rule:nonzero;stroke:none"
         id="path48" /><path
         d="M 871.918,1843.2 V 1592.65"
         style="fill:none;stroke:#231f20;stroke-width:48.96;stroke-linecap:butt;stroke-linejoin:round;stroke-miterlimit:4;stroke-dasharray:none;stroke-opacity:1"
         id="path50" /><path
         d="M 951.84,1740.97 V 990"
         style="fill:#231f20;fill-opacity:1;fill-rule:nonzero;stroke:none"
         id="path52" /><path
         d="M 951.84,1740.97 V 990"
         style="fill:none;stroke:#231f20;stroke-width:48.96;stroke-linecap:butt;stroke-linejoin:round;stroke-miterlimit:4;stroke-dasharray:none;stroke-opacity:1"
         id="path54" /><path
         d="m 1030.32,1165.69 v 890.63"
         style="fill:#231f20;fill-opacity:1;fill-rule:nonzero;stroke:none"
         id="path56" /><path
         d="m 1030.32,1165.69 v 890.63"
         style="fill:none;stroke:#231f20;stroke-width:48.96;stroke-linecap:butt;stroke-linejoin:round;stroke-miterlimit:4;stroke-dasharray:none;stroke-opacity:1"
         id="path58" /><path
         d="M 1108.8,2091.6 V 1278"
         style="fill:#231f20;fill-opacity:1;fill-rule:nonzero;stroke:none"
         id="path60" /><path
         d="M 1108.8,2091.6 V 1278"
         style="fill:none;stroke:#231f20;stroke-width:48.96;stroke-linecap:butt;stroke-linejoin:round;stroke-miterlimit:4;stroke-dasharray:none;stroke-opacity:1"
         id="path62" /><path
         d="m 1188.72,1126.81 v 753.11"
         style="fill:#231f20;fill-opacity:1;fill-rule:nonzero;stroke:none"
         id="path64" /><path
         d="m 1188.72,1126.81 v 753.11"
         style="fill:none;stroke:#231f20;stroke-width:48.96;stroke-linecap:butt;stroke-linejoin:round;stroke-miterlimit:4;stroke-dasharray:none;stroke-opacity:1"
         id="path66" /><path
         d="M 1422,1779.84 V 1091.52"
         style="fill:#231f20;fill-opacity:1;fill-rule:nonzero;stroke:none"
         id="path68" /><path
         d="M 1422,1779.84 V 1091.52"
         style="fill:none;stroke:#231f20;stroke-width:48.96;stroke-linecap:butt;stroke-linejoin:round;stroke-miterlimit:4;stroke-dasharray:none;stroke-opacity:1"
         id="path70" /><path
         d="m 1500.48,1154.88 v 888.48"
         style="fill:#231f20;fill-opacity:1;fill-rule:nonzero;stroke:none"
         id="path72" /><path
         d="m 1500.48,1154.88 v 888.48"
         style="fill:none;stroke:#231f20;stroke-width:48.96;stroke-linecap:butt;stroke-linejoin:round;stroke-miterlimit:4;stroke-dasharray:none;stroke-opacity:1"
         id="path74" /><path
         d="M 1581.12,2126.89 V 1341.36"
         style="fill:#231f20;fill-opacity:1;fill-rule:nonzero;stroke:none"
         id="path76" /><path
         d="M 1581.12,2126.89 V 1341.36"
         style="fill:none;stroke:#231f20;stroke-width:48.96;stroke-linecap:butt;stroke-linejoin:round;stroke-miterlimit:4;stroke-dasharray:none;stroke-opacity:1"
         id="path78" /><path
         d="m 1659.59,1653.12 v 426.97"
         style="fill:#231f20;fill-opacity:1;fill-rule:nonzero;stroke:none"
         id="path80" /><path
         d="m 1659.59,1653.12 v 426.97"
         style="fill:none;stroke:#231f20;stroke-width:48.96;stroke-linecap:butt;stroke-linejoin:round;stroke-miterlimit:4;stroke-dasharray:none;stroke-opacity:1"
         id="path82" /><path
         d="M 1737.37,2056.32 V 1640.88"
         style="fill:#231f20;fill-opacity:1;fill-rule:nonzero;stroke:none"
         id="path84" /><path
         d="M 1737.37,2056.32 V 1640.88"
         style="fill:none;stroke:#231f20;stroke-width:48.96;stroke-linecap:butt;stroke-linejoin:round;stroke-miterlimit:4;stroke-dasharray:none;stroke-opacity:1"
         id="path86" /><path
         d="M 1815.84,1527.84 V 1954.8"
         style="fill:#231f20;fill-opacity:1;fill-rule:nonzero;stroke:none"
         id="path88" /><path
         d="M 1815.84,1527.84 V 1954.8"
         style="fill:none;stroke:#231f20;stroke-width:48.96;stroke-linecap:butt;stroke-linejoin:round;stroke-miterlimit:4;stroke-dasharray:none;stroke-opacity:1"
         id="path90" /><path
         d="m 1894.32,1981.44 v -439.2"
         style="fill:#231f20;fill-opacity:1;fill-rule:nonzero;stroke:none"
         id="path92" /><path
         d="m 1894.32,1981.44 v -439.2"
         style="fill:none;stroke:#231f20;stroke-width:48.96;stroke-linecap:butt;stroke-linejoin:round;stroke-miterlimit:4;stroke-dasharray:none;stroke-opacity:1"
         id="path94" /><path
         d="m 1972.8,1628.64 v 251.28"
         style="fill:#231f20;fill-opacity:1;fill-rule:nonzero;stroke:none"
         id="path96" /><path
         d="m 1972.8,1628.64 v 251.28"
         style="fill:none;stroke:#231f20;stroke-width:48.96;stroke-linecap:butt;stroke-linejoin:round;stroke-miterlimit:4;stroke-dasharray:none;stroke-opacity:1"
         id="path98" /><path
         d="m 1345.68,1165.69 v 338.4"
         style="fill:#231f20;fill-opacity:1;fill-rule:nonzero;stroke:none"
         id="path100" /><path
         d="m 1345.68,1165.69 v 338.4"
         style="fill:none;stroke:#231f20;stroke-width:48.96;stroke-linecap:butt;stroke-linejoin:round;stroke-miterlimit:4;stroke-dasharray:none;stroke-opacity:1"
         id="path102" /><path
         d="M 1265.76,1615.68 V 1091.52"
         style="fill:#231f20;fill-opacity:1;fill-rule:nonzero;stroke:none"
         id="path104" /><path
         d="M 1265.76,1615.68 V 1091.52"
         style="fill:none;stroke:#231f20;stroke-width:48.96;stroke-linecap:butt;stroke-linejoin:round;stroke-miterlimit:4;stroke-dasharray:none;stroke-opacity:1"
         id="path106" /><path
         d="M 158.402,2207.52 H 2046.96 c 79.92,0 145.44,-66.24 145.44,-146.16 V 159.121 c 0,-79.9218 -65.52,-146.1601 -145.44,-146.1601 H 158.402 C 78.4805,12.9609 12.9609,79.1992 12.9609,159.121 V 2061.36 c 0,79.92 65.5196,146.16 145.4411,146.16 z"
         style="fill:none;stroke:#231f20;stroke-width:25.92;stroke-linecap:butt;stroke-linejoin:round;stroke-miterlimit:4;stroke-dasharray:none;stroke-opacity:1"
         id="path108" /><path
         d="m 264.242,208.078 h 234 v 717.133 h -234 z"
         style="fill:#231f20;fill-opacity:1;fill-rule:nonzero;stroke:none"
         id="path110" /><path
         d="m 264.242,208.078 v 717.133 h 234 V 208.078 Z"
         style="fill:none;stroke:#231f20;stroke-width:10;stroke-linecap:butt;stroke-linejoin:miter;stroke-miterlimit:4;stroke-dasharray:none;stroke-opacity:1"
         id="path112" /><path
         d="M 826.563,617.039 H 931.68 V 455.762 c -0.719,0 -2.16,0 -2.879,0 H 826.563 V 208.078 H 589.684 V 925.211 H 931.68 V 751.68 c -0.719,0 -1.442,0 -2.16,0 H 826.563 Z m 105.117,0 H 936 c 38.16,0 64.8,5.043 79.2,15.121 14.4,10.078 21.6,27.36 21.6,51.84 0,25.199 -7.2,43.199 -21.6,52.559 -14.4,10.082 -41.759,15.121 -83.52,15.121 v 173.531 h 15.84 c 112.32,0 192.24,-15.84 240.48,-48.25 47.52,-31.68 71.28,-84.231 71.28,-157.672 0,-43.93 -9.36,-80.648 -29.52,-109.449 -19.44,-28.789 -49.68,-51.84 -90.72,-68.399 41.76,-8.64 72,-25.203 90.72,-49.671 19.44,-25.211 29.52,-61.211 30.96,-109.45 l 3.6,-100.082 c 0,-0.718 0.72,-1.437 0.72,-2.148 1.44,-28.809 7.92,-43.93 21.6,-44.649 V 208.078 H 1044 c -4.32,17.281 -7.2,32.402 -9.36,45.371 -2.88,12.949 -3.6,23.031 -3.6,30.231 v 71.281 c 0,36.719 -7.92,62.648 -23.04,77.769 -14.402,15.11 -40.32,22.309 -76.32,23.032 v 161.277"
         style="fill:#231f20;fill-opacity:1;fill-rule:nonzero;stroke:none"
         id="path114" /><path
         d="M 826.563,617.039 H 931.68 V 455.762 c -0.719,0 -2.16,0 -2.879,0 H 826.563 V 208.078 H 589.684 V 925.211 H 931.68 V 751.68 c -0.719,0 -1.442,0 -2.16,0 H 826.563 Z m 105.117,0 H 936 c 38.16,0 64.8,5.043 79.2,15.121 14.4,10.078 21.6,27.36 21.6,51.84 0,25.199 -7.2,43.199 -21.6,52.559 -14.4,10.082 -41.759,15.121 -83.52,15.121 v 173.531 h 15.84 c 112.32,0 192.24,-15.84 240.48,-48.25 47.52,-31.68 71.28,-84.231 71.28,-157.672 0,-43.93 -9.36,-80.648 -29.52,-109.449 -19.44,-28.789 -49.68,-51.84 -90.72,-68.399 41.76,-8.64 72,-25.203 90.72,-49.671 19.44,-25.211 29.52,-61.211 30.96,-109.45 l 3.6,-100.082 c 0,-0.718 0.72,-1.437 0.72,-2.148 1.44,-28.809 7.92,-43.93 21.6,-44.649 V 208.078 H 1044 c -4.32,17.281 -7.2,32.402 -9.36,45.371 -2.88,12.949 -3.6,23.031 -3.6,30.231 v 71.281 c 0,36.719 -7.92,62.648 -23.04,77.769 -14.402,15.11 -40.32,22.309 -76.32,23.032 z"
         style="fill:none;stroke:#231f20;stroke-width:10;stroke-linecap:butt;stroke-linejoin:miter;stroke-miterlimit:4;stroke-dasharray:none;stroke-opacity:1"
         id="path116" /><path
         d="m 1375.92,203.039 v 717.133 h 570.24 V 739.441 H 1617.84 V 628.57 H 1879.2 V 455.039 h -261.36 v -252 h -241.92"
         style="fill:#231f20;fill-opacity:1;fill-rule:nonzero;stroke:none"
         id="path118" /><path
         d="m 1375.92,203.039 v 717.133 h 570.24 V 739.441 H 1617.84 V 628.57 H 1879.2 V 455.039 h -261.36 v -252 z"
         style="fill:none;stroke:#231f20;stroke-width:10;stroke-linecap:butt;stroke-linejoin:miter;stroke-miterlimit:4;stroke-dasharray:none;stroke-opacity:1"
         id="path120" /></g></g></svg>
